<svg width="15" height="15" viewBox="0 0 15 15" fill="none" xmlns="http://www.w3.org/2000/svg">
<path d="M13.98 13.3428L10.48 9.84283C11.3617 8.763 11.7949 7.38571 11.69 5.9956C11.585 4.60548 10.95 3.30881 9.91625 2.37357C8.88245 1.43833 7.52885 0.936 6.13521 0.970408C4.74156 1.00482 3.4144 1.57333 2.42802 2.55845C1.44163 3.54357 0.871409 4.87 0.835209 6.26359C0.799009 7.65719 1.29959 9.01143 2.23351 10.0464C3.16742 11.0814 4.46327 11.7181 5.85325 11.8248C7.24323 11.9315 8.62108 11.5001 9.70204 10.6198L13.202 14.1198C13.2531 14.1709 13.3138 14.2114 13.3805 14.2391C13.4473 14.2667 13.5188 14.281 13.591 14.281C13.6633 14.281 13.7348 14.2667 13.8016 14.2391C13.8683 14.2114 13.929 14.1709 13.98 14.1198C14.0311 14.0687 14.0716 14.0081 14.0993 13.9414C14.1269 13.8746 14.1412 13.8031 14.1412 13.7308C14.1412 13.6586 14.1269 13.5871 14.0993 13.5203C14.0716 13.4536 14.0311 13.3929 13.98 13.3418V13.3428ZM1.95904 6.41783C1.95924 5.56366 2.21271 4.72872 2.68741 4.0186C3.16211 3.30847 3.83671 2.75505 4.62592 2.42831C5.41513 2.10157 6.28351 2.01618 7.12125 2.18294C7.95899 2.34971 8.72846 2.76113 9.33239 3.36519C9.93631 3.96926 10.3476 4.73883 10.5141 5.57661C10.6807 6.41438 10.5951 7.28274 10.2682 8.07187C9.94125 8.86101 9.38768 9.53549 8.67744 10.01C7.96721 10.4846 7.13221 10.7378 6.27804 10.7378C5.13272 10.7368 4.03463 10.2813 3.22486 9.4713C2.41509 8.66135 1.95983 7.56315 1.95904 6.41783V6.41783Z" fill="white"/>
</svg>
